<?xml version="1.0" standalone="no"?>
<!DOCTYPE svg PUBLIC "-//W3C//DTD SVG 20010904//EN"
 "http://www.w3.org/TR/2001/REC-SVG-20010904/DTD/svg10.dtd">
<svg version="1.0" xmlns="http://www.w3.org/2000/svg"
 width="400.000000pt" height="300.000000pt" viewBox="0 0 400.000000 300.000000"
 preserveAspectRatio="xMidYMid meet">

<g transform="translate(0.000000,300.000000) scale(0.100000,-0.100000)"
fill="#000000" stroke="none">
<path d="M1891 2151 c-5 -8 -11 -9 -14 -4 -7 12 -67 4 -67 -8 0 -5 -6 -9 -14
-9 -8 0 -18 -4 -21 -10 -9 -15 52 -12 67 4 8 9 27 11 55 8 28 -3 43 -1 43 7 0
6 7 11 15 11 8 0 15 4 15 8 0 14 -71 8 -79 -7z"/>
<path d="M2135 2160 c-3 -5 1 -10 10 -10 9 0 13 5 10 10 -3 6 -8 10 -10 10 -2
0 -7 -4 -10 -10z"/>
<path d="M2018 2153 c12 -2 30 -2 40 0 9 3 -1 5 -23 4 -22 0 -30 -2 -17 -4z"/>
<path d="M2220 2141 c0 -4 10 -13 23 -19 l22 -12 -25 1 c-47 2 -61 -1 -55 -12
4 -6 27 -9 51 -8 36 3 47 -1 60 -19 8 -12 22 -22 31 -22 13 0 13 3 3 15 -10
12 -9 16 3 20 8 4 27 -7 45 -24 33 -34 69 -42 58 -15 -6 15 -4 15 11 3 10 -7
30 -27 45 -44 14 -16 30 -27 34 -22 9 9 -32 54 -67 73 -15 7 -30 10 -34 6 -3
-4 -12 0 -18 9 -17 22 -56 42 -72 36 -7 -3 -21 0 -31 7 -27 18 -84 36 -84 27z"/>
<path d="M1955 2130 c-3 -5 1 -10 10 -10 9 0 13 5 10 10 -3 6 -8 10 -10 10 -2
0 -7 -4 -10 -10z"/>
<path d="M2068 2133 c12 -2 32 -2 45 0 12 2 2 4 -23 4 -25 0 -35 -2 -22 -4z"/>
<path d="M2158 2133 c12 -2 30 -2 40 0 9 3 -1 5 -23 4 -22 0 -30 -2 -17 -4z"/>
<path d="M1703 2103 c9 -2 23 -2 30 0 6 3 -1 5 -18 5 -16 0 -22 -2 -12 -5z"/>
<path d="M1625 2090 c-8 -13 5 -13 25 0 13 8 13 10 -2 10 -9 0 -20 -4 -23 -10z"/>
<path d="M1650 2065 c-16 -19 0 -19 26 0 16 12 16 14 3 15 -9 0 -22 -7 -29
-15z"/>
<path d="M1576 2055 c-19 -14 -19 -15 6 -15 14 0 31 7 38 15 10 12 9 15 -6 15
-11 0 -28 -7 -38 -15z"/>
<path d="M1554 2020 c-27 -11 -40 -30 -20 -30 13 0 46 25 46 36 0 5 1 5 -26
-6z"/>
<path d="M1484 1998 c-54 -62 -57 -68 -43 -67 8 0 29 20 46 45 34 46 31 61 -3
22z"/>
<path d="M2549 1996 c14 -14 29 -26 34 -26 13 0 -12 29 -37 42 -19 10 -18 8 3
-16z"/>
<path d="M1411 1954 c-12 -27 -11 -28 4 -12 10 9 16 21 13 28 -2 7 -10 -1 -17
-16z"/>
<path d="M2460 1940 c0 -5 5 -10 11 -10 5 0 7 5 4 10 -3 6 -8 10 -11 10 -2 0
-4 -4 -4 -10z"/>
<path d="M2645 1930 c10 -11 20 -20 23 -20 3 0 -3 9 -13 20 -10 11 -20 20 -23
20 -3 0 3 -9 13 -20z"/>
<path d="M1945 1930 c-3 -5 -1 -10 4 -10 6 0 11 -13 11 -30 0 -31 -9 -35 -95
-42 -36 -4 -47 -35 -19 -55 10 -7 14 -13 8 -14 -21 -2 -82 -5 -131 -7 l-53 -2
0 -39 c0 -22 -4 -43 -10 -46 -5 -3 -10 -22 -10 -41 0 -23 -5 -34 -14 -34 -10
0 -17 -16 -22 -45 -6 -44 -7 -45 -45 -45 -32 0 -39 -3 -39 -20 0 -16 7 -20 35
-20 29 0 37 5 45 25 8 20 16 25 45 25 29 0 35 4 36 23 1 21 1 21 9 -3 4 -14 8
-44 9 -67 l1 -43 40 0 c25 0 40 5 40 13 0 8 3 8 9 -2 7 -10 21 -12 55 -8 l46
7 0 -46 0 -45 45 3 45 3 0 60 c0 33 -3 90 -7 128 -6 64 -7 67 -32 67 -26 0
-27 2 -21 46 l5 45 75 5 c84 5 120 18 120 46 0 18 -18 23 -66 19 -12 -1 -26 4
-32 11 -8 10 33 13 209 12 120 -1 219 3 219 8 0 4 -8 8 -17 8 -13 0 -14 3 -5
12 20 20 14 28 -23 28 -28 0 -33 -3 -29 -17 5 -16 5 -16 -6 0 -10 16 -29 18
-202 16 -203 -1 -208 0 -208 48 0 25 -15 39 -25 23z m-15 -120 c0 -11 -4 -20
-9 -20 -5 0 -7 9 -4 20 3 11 7 20 9 20 2 0 4 -9 4 -20z m42 -32 c3 -7 -4 -21
-14 -30 -17 -17 -18 -17 -18 12 0 30 23 43 32 18z m-226 -114 l-15 -59 1 48
c1 26 5 47 10 47 4 0 8 8 8 17 0 9 2 14 5 11 3 -3 -1 -31 -9 -64z m97 9 c-3
-29 -8 -53 -12 -53 -10 0 -7 84 4 96 14 16 14 16 8 -43z m57 -59 c0 -8 -4 -12
-10 -9 -5 3 -10 10 -10 16 0 5 5 9 10 9 6 0 10 -7 10 -16z m-193 -16 c-3 -8
-6 -5 -6 6 -1 11 2 17 5 13 3 -3 4 -12 1 -19z m90 -65 c-3 -10 -5 -2 -5 17 0
19 2 27 5 18 2 -10 2 -26 0 -35z m98 7 c3 -5 1 -10 -4 -10 -6 0 -11 5 -11 10
0 6 2 10 4 10 3 0 8 -4 11 -10z"/>
<path d="M1910 1920 c0 -5 5 -10 10 -10 6 0 10 5 10 10 0 6 -4 10 -10 10 -5 0
-10 -4 -10 -10z"/>
<path d="M1362 1890 c-24 -32 -15 -42 10 -12 22 26 30 42 20 42 -4 0 -18 -13
-30 -30z"/>
<path d="M1328 1885 c-10 -13 -18 -30 -18 -37 0 -8 -16 -38 -35 -68 -42 -67
-45 -87 -5 -40 17 19 30 38 30 43 0 5 9 22 20 37 15 21 17 29 8 33 -10 3 -8
10 6 26 11 11 17 23 15 25 -2 2 -12 -6 -21 -19z"/>
<path d="M1800 1895 c0 -8 0 -18 0 -22 0 -9 48 -12 68 -5 18 6 15 42 -4 42 -9
0 -12 -5 -8 -12 6 -10 4 -10 -7 0 -18 17 -49 15 -49 -3z"/>
<path d="M2360 1890 c0 -5 5 -10 10 -10 6 0 10 5 10 10 0 6 -4 10 -10 10 -5 0
-10 -4 -10 -10z"/>
<path d="M2440 1897 c0 -4 9 -21 20 -39 11 -18 20 -45 20 -59 0 -14 3 -29 8
-33 4 -4 7 -32 8 -63 0 -35 5 -58 14 -63 7 -5 15 -17 17 -27 9 -51 15 -138 17
-227 1 -70 5 -101 14 -103 19 -7 16 -103 -3 -103 -11 0 -15 -12 -15 -44 0 -41
-2 -44 -31 -50 -17 -3 -98 -6 -180 -6 -126 0 -149 2 -149 15 0 11 -12 15 -45
15 -43 0 -45 1 -45 30 0 17 5 30 10 30 6 0 10 20 10 45 l0 45 -48 0 c-47 0
-49 1 -58 37 -5 20 -15 38 -22 41 -10 3 -10 -4 2 -32 l15 -36 -28 0 c-39 0
-50 -17 -42 -65 6 -36 9 -40 34 -37 25 3 27 1 27 -31 0 -20 3 -42 6 -51 5 -13
-1 -16 -30 -16 -34 0 -36 -2 -35 -32 0 -18 4 -59 8 -91 4 -32 4 -60 -1 -63
-12 -8 -10 -48 4 -62 7 -7 23 -13 37 -13 15 -1 -4 -5 -41 -9 -38 -3 -70 -9
-73 -11 -2 -3 -1 -15 2 -28 6 -23 7 -23 20 -6 7 11 13 13 13 7 0 -7 15 -12 35
-12 27 0 35 -4 35 -18 0 -13 8 -17 32 -17 25 0 33 -5 35 -20 13 -86 26 -126
40 -121 8 3 34 6 58 6 l44 0 -10 30 c-7 17 -18 30 -28 30 -13 0 -16 8 -13 42
l4 41 -36 -6 -36 -6 0 45 c0 37 -3 44 -20 44 -18 0 -19 2 -8 20 15 23 33 27
24 5 -4 -12 3 -15 32 -14 30 0 33 2 16 9 -12 4 -24 18 -27 30 l-6 22 23 -21
c22 -21 42 -29 32 -12 -10 15 17 28 62 30 41 2 43 1 37 -21 -6 -22 -6 -22 9
-4 28 35 20 43 -33 38 -27 -2 -57 0 -67 6 -15 8 1 11 64 11 45 0 82 -1 82 -3
0 -2 -7 -20 -16 -41 -8 -20 -14 -39 -12 -40 9 -9 58 10 61 24 4 14 5 14 6 -1
1 -15 12 -17 78 -17 48 0 81 5 85 12 6 9 8 9 8 0 0 -8 13 -13 31 -13 l30 0
-20 -29 c-12 -16 -21 -33 -21 -37 0 -5 -17 -25 -37 -46 -35 -35 -41 -66 -8
-38 9 8 15 8 15 2 0 -6 -5 -14 -11 -17 -6 -4 -15 -17 -20 -29 l-10 -21 5 22
c4 21 1 22 -68 22 -80 -1 -90 -4 -100 -37 -10 -31 9 -36 92 -25 81 10 97 2 76
-39 -8 -15 -23 -29 -34 -33 -33 -10 -23 -25 18 -26 20 0 45 -2 54 -4 11 -2 15
2 11 11 -3 8 0 14 7 14 6 0 9 3 7 8 -3 4 6 8 18 8 24 2 24 2 6 -25 -10 -14
-26 -39 -35 -54 -10 -16 -20 -26 -23 -23 -4 3 1 14 11 25 16 17 16 19 -4 24
-16 4 -27 -3 -46 -33 -24 -36 -27 -37 -81 -38 -32 0 -59 -5 -63 -12 -4 -7 -9
-8 -11 -3 -2 5 -41 7 -86 5 -80 -4 -83 -5 -83 -28 0 -17 -6 -24 -20 -24 -11 0
-20 -7 -20 -15 0 -8 9 -15 20 -15 11 0 20 -4 20 -9 0 -5 10 -12 23 -16 l22 -8
-22 -4 c-13 -2 -23 -9 -23 -15 0 -6 10 -8 23 -4 12 3 37 6 55 6 18 0 31 4 28
9 -4 5 3 7 13 4 25 -6 106 20 196 64 134 65 228 134 307 225 80 94 80 94 58
94 -10 0 -16 -4 -14 -8 3 -4 0 -8 -7 -8 -7 0 -10 -2 -7 -5 3 -3 -8 -20 -23
-38 -15 -17 -39 -45 -53 -62 -13 -16 -28 -26 -32 -22 -5 4 -2 12 6 17 7 5 15
16 16 26 1 9 8 22 14 28 8 8 9 6 5 -6 -13 -34 3 -18 36 37 22 37 40 55 53 55
11 0 16 3 13 6 -4 4 5 20 18 36 14 16 25 38 25 49 0 11 4 18 9 15 9 -6 28 14
49 52 9 15 9 22 1 22 -8 0 -9 4 0 13 6 8 7 17 3 21 -4 4 -1 6 6 4 8 -2 18 7
23 20 6 15 5 21 -1 17 -16 -10 -12 5 6 22 8 9 13 24 11 34 -3 11 -1 19 4 19 5
0 9 5 9 11 0 5 -4 7 -10 4 -5 -3 -10 0 -10 8 0 8 7 18 16 21 9 4 12 11 7 18
-8 15 -9 19 -12 68 -1 28 -4 32 -12 20 -8 -11 -9 -1 -4 35 4 28 11 52 16 53
15 6 10 30 -8 40 -13 8 -17 23 -16 63 2 66 -5 119 -16 119 -9 0 -7 -127 4
-187 8 -47 -1 -113 -16 -113 -5 0 -7 16 -3 40 7 43 -13 170 -27 170 -5 0 -9
-1 -9 -2 0 -2 6 -40 14 -86 7 -45 9 -85 5 -88 -5 -3 -9 15 -9 40 0 25 -4 46
-10 46 -6 0 -10 31 -10 73 0 39 -4 88 -10 107 -5 19 -11 56 -14 82 -3 39 -38
118 -51 118 -2 0 3 -21 11 -47 8 -27 17 -71 19 -99 3 -28 9 -72 14 -97 5 -31
5 -47 -2 -50 -8 -2 -7 -20 2 -59 8 -36 10 -83 5 -131 -8 -86 -14 -91 -88 -75
-45 9 -46 10 -46 48 0 21 5 42 10 45 15 10 12 71 -5 85 -9 7 -15 29 -15 51 0
37 -2 39 -30 39 -33 0 -34 2 -46 100 -13 114 -14 146 -3 127 5 -9 9 -25 8 -35
-3 -34 1 -72 9 -72 4 0 18 16 31 35 24 35 23 65 -2 65 -8 0 -20 7 -27 15 -11
13 -10 18 6 29 10 8 15 18 11 23 -5 4 -15 -1 -23 -12 -11 -15 -18 -17 -31 -9
-19 12 -46 81 -33 86 9 3 -6 78 -23 116 -6 12 -18 22 -28 22 -10 0 -27 10 -39
22 -11 12 -20 19 -20 15z m177 -604 c-3 -10 -5 -2 -5 17 0 19 2 27 5 18 2 -10
2 -26 0 -35z m20 -85 c-2 -13 -4 -3 -4 22 0 25 2 35 4 23 2 -13 2 -33 0 -45z
m-20 -95 c-2 -16 -4 -5 -4 22 0 28 2 40 4 28 2 -13 2 -35 0 -50z m233 27 c0
-5 -4 -10 -10 -10 -5 0 -10 5 -10 10 0 6 5 10 10 10 6 0 10 -4 10 -10z m70
-56 c0 -3 -7 -1 -15 6 -8 7 -15 17 -15 22 0 5 7 3 15 -6 8 -8 15 -18 15 -22z
m-7 -44 c-7 -28 -13 -25 -13 6 0 14 4 23 9 20 5 -3 7 -15 4 -26z m-603 -54 c8
-2 -16 -4 -55 -4 -38 0 -62 3 -52 7 17 6 70 5 107 -3z m557 -52 c-3 -3 -12 -4
-19 -1 -8 3 -5 6 6 6 11 1 17 -2 13 -5z m-425 -35 c-15 -6 -30 -5 -40 1 -13 7
-8 9 23 9 35 0 37 -1 17 -10z m58 1 c0 -5 -2 -10 -4 -10 -3 0 -8 5 -11 10 -3
6 -1 10 4 10 6 0 11 -4 11 -10z m-147 -7 c-7 -2 -21 -2 -30 0 -10 3 -4 5 12 5
17 0 24 -2 18 -5z m467 -42 c0 -5 -7 -12 -16 -15 -14 -5 -15 -4 -4 9 14 17 20
19 20 6z m-100 -11 c0 -5 -5 -10 -11 -10 -5 0 -7 5 -4 10 3 6 8 10 11 10 2 0
4 -4 4 -10z m55 -60 c-4 -14 -2 -20 9 -20 8 0 18 9 21 21 4 11 9 18 13 15 10
-11 -22 -58 -50 -72 -15 -8 -35 -32 -46 -57 -11 -24 -26 -44 -33 -45 -8 0 -25
-4 -38 -8 -22 -6 -22 -5 -11 16 10 18 9 24 -1 31 -12 7 -12 9 0 9 8 0 23 8 33
17 18 16 19 16 9 -10 l-11 -28 25 18 c13 10 25 21 25 25 0 3 12 20 26 37 14
17 21 31 15 31 -9 0 -9 6 -1 20 6 11 13 20 16 20 3 0 2 -9 -1 -20z m-682 -147
c-7 -2 -19 -2 -25 0 -7 3 -2 5 12 5 14 0 19 -2 13 -5z m418 -36 c-10 -9 -11
-8 -5 6 3 10 9 15 12 12 3 -3 0 -11 -7 -18z m67 -107 c-7 -10 -14 -17 -17 -15
-4 4 18 35 25 35 2 0 -1 -9 -8 -20z m33 -24 c-20 -21 -76 -33 -64 -13 3 5 11
6 19 3 8 -3 22 3 31 14 10 11 22 20 27 20 5 0 -1 -11 -13 -24z m-251 -97 c-7
-11 -14 -18 -17 -15 -3 3 0 12 7 21 18 21 23 19 10 -6z m-94 -16 c-3 -3 -28
-6 -55 -7 -38 -2 -46 0 -35 8 14 11 101 9 90 -1z m-91 -33 c3 -5 -1 -10 -10
-10 -9 0 -13 5 -10 10 3 6 8 10 10 10 2 0 7 -4 10 -10z m48 -7 c-7 -2 -19 -2
-25 0 -7 3 -2 5 12 5 14 0 19 -2 13 -5z"/>
<path d="M1470 1859 c0 -5 5 -7 10 -4 6 3 10 8 10 11 0 2 -4 4 -10 4 -5 0 -10
-5 -10 -11z"/>
<path d="M1490 1839 c0 -5 5 -7 10 -4 6 3 10 8 10 11 0 2 -4 4 -10 4 -5 0 -10
-5 -10 -11z"/>
<path d="M1737 1823 c-7 -37 1 -44 46 -36 33 5 37 9 37 34 0 27 -3 29 -39 29
-34 0 -39 -3 -44 -27z"/>
<path d="M1657 1833 c-4 -3 -7 -16 -7 -29 0 -16 5 -21 18 -19 9 2 24 4 33 4 9
1 19 12 21 26 5 22 2 25 -27 25 -17 0 -35 -3 -38 -7z"/>
<path d="M1275 1820 c-4 -6 -12 -7 -18 -4 -7 4 -9 3 -5 -1 5 -5 -4 -28 -18
-52 -14 -25 -24 -47 -21 -49 2 -2 20 23 40 56 19 33 34 60 32 60 -2 0 -7 -5
-10 -10z"/>
<path d="M1580 1812 c0 -11 39 -12 45 -1 4 5 -5 9 -19 9 -14 0 -26 -4 -26 -8z"/>
<path d="M1450 1803 c-26 -10 -43 -53 -20 -53 6 0 10 7 10 15 0 8 5 15 11 15
5 0 7 -6 3 -12 -4 -8 -3 -10 2 -5 5 5 9 12 9 15 0 4 4 13 8 20 9 13 2 14 -23
5z"/>
<path d="M1496 1794 c-9 -23 -7 -34 5 -34 5 0 8 4 4 9 -3 5 -1 12 5 16 12 8
13 25 1 25 -5 0 -12 -7 -15 -16z"/>
<path d="M1366 1784 c-8 -22 -8 -26 4 -19 6 3 10 0 10 -7 1 -14 30 20 30 34 0
15 -38 8 -44 -8z"/>
<path d="M1520 1780 c0 -5 5 -10 10 -10 6 0 10 5 10 10 0 6 -4 10 -10 10 -5 0
-10 -4 -10 -10z"/>
<path d="M2405 1768 c10 -33 20 -41 53 -42 24 -1 28 2 24 22 -5 24 -7 26 -55
37 -26 5 -28 4 -22 -17z"/>
<path d="M2560 1780 c0 -28 25 -60 47 -60 27 0 28 2 8 40 -15 28 -55 43 -55
20z"/>
<path d="M2620 1785 c0 -19 32 -63 49 -68 11 -2 29 -23 40 -46 12 -22 28 -41
35 -41 21 0 -7 72 -32 81 -11 4 -28 24 -37 43 -11 23 -24 36 -36 36 -11 0 -19
-2 -19 -5z"/>
<path d="M1613 1763 c-13 -2 -23 -10 -23 -18 0 -7 -3 -21 -6 -30 -6 -14 0 -16
32 -13 36 3 39 5 39 32 0 31 -7 36 -42 29z"/>
<path d="M1506 1728 c-10 -38 -13 -36 50 -29 7 0 11 12 10 26 -2 34 -51 36
-60 3z m38 -3 c-7 -16 -24 -21 -24 -6 0 8 7 13 27 20 1 1 0 -6 -3 -14z"/>
<path d="M1393 1729 c-13 -5 -23 -13 -23 -18 0 -5 -3 -17 -6 -26 -5 -13 -2
-16 16 -13 16 2 26 12 31 32 10 36 10 36 -18 25z"/>
<path d="M1433 1710 c-10 -28 -10 -30 12 -30 17 0 26 8 34 30 9 27 8 30 -12
30 -16 0 -26 -9 -34 -30z"/>
<path d="M1320 1715 c-12 -15 -40 -99 -40 -122 0 -11 4 -11 22 -2 14 8 18 14
10 17 -15 5 -16 23 -1 20 6 -2 14 3 16 10 3 8 -2 10 -14 6 -15 -5 -14 -3 4 13
23 19 42 73 25 73 -5 0 -15 -7 -22 -15z"/>
<path d="M2630 1702 c0 -6 13 -24 30 -42 38 -41 60 -30 27 13 -24 31 -57 48
-57 29z"/>
<path d="M1178 1692 c-10 -2 -18 -8 -18 -13 0 -6 5 -7 11 -3 14 8 2 -36 -13
-51 -7 -7 -8 -2 -3 13 3 12 4 22 1 22 -8 0 -35 -61 -42 -95 -3 -19 -12 -36
-20 -39 -8 -3 -14 -10 -14 -16 0 -6 4 -9 9 -6 5 3 7 -9 5 -27 -1 -17 -3 -40
-3 -49 -1 -10 -4 -18 -9 -18 -4 0 -6 19 -5 43 l3 42 -15 -40 c-19 -49 -16 -70
10 -70 25 0 33 18 35 75 1 42 28 132 29 101 2 -25 29 8 36 42 3 18 11 45 17
60 12 31 10 35 -14 29z"/>
<path d="M1207 1667 c-11 -29 -9 -43 4 -30 6 6 9 19 7 29 -3 18 -4 18 -11 1z"/>
<path d="M2736 1595 c7 -33 20 -52 29 -43 4 3 -3 21 -15 39 l-21 34 7 -30z"/>
<path d="M1275 1567 c-15 -12 -19 -32 -22 -130 -4 -110 -3 -117 15 -117 23 0
32 42 28 135 -1 33 1 71 6 84 11 31 -3 45 -27 28z"/>
<path d="M1215 1549 c-6 -19 -9 -45 -19 -171 -4 -51 -3 -58 13 -58 15 0 20 9
23 41 2 22 1 42 -3 45 -4 2 -2 20 4 40 8 26 8 37 -1 42 -7 5 -8 13 -2 22 12
19 13 60 1 60 -5 0 -13 -9 -16 -21z"/>
<path d="M2848 1550 c-3 -8 1 -35 8 -60 8 -25 14 -57 14 -72 0 -15 4 -30 10
-33 6 -4 7 11 3 42 -10 73 -29 140 -35 123z"/>
<path d="M1336 1525 c-19 -15 -19 -15 2 -15 13 0 22 6 22 15 0 18 0 18 -24 0z"/>
<path d="M2740 1525 c0 -11 5 -27 10 -35 8 -12 10 -12 10 5 0 11 -5 27 -10 35
-8 12 -10 12 -10 -5z"/>
<path d="M1166 1468 c-11 -37 -14 -60 -6 -52 11 12 24 64 16 64 -4 0 -8 -6
-10 -12z"/>
<path d="M2760 1438 c0 -39 12 -68 27 -68 22 0 14 84 -9 88 -13 3 -18 -3 -18
-20z"/>
<path d="M1120 1369 c0 -11 5 -17 10 -14 6 3 10 13 10 21 0 8 -4 14 -10 14 -5
0 -10 -9 -10 -21z"/>
<path d="M1150 1349 c0 -52 24 -48 28 4 2 28 -1 37 -12 37 -12 0 -16 -11 -16
-41z"/>
<path d="M1041 1353 c-1 -16 5 -23 17 -23 10 0 13 3 6 8 -6 4 -14 14 -17 22
-4 10 -6 8 -6 -7z"/>
<path d="M2936 1333 c10 -40 14 -41 14 -5 0 18 -5 32 -10 32 -6 0 -8 -11 -4
-27z"/>
<path d="M1270 1300 c0 -5 5 -10 10 -10 6 0 10 5 10 10 0 6 -4 10 -10 10 -5 0
-10 -4 -10 -10z"/>
<path d="M1250 1279 c0 -13 4 -18 13 -13 7 5 6 0 -3 -11 -11 -14 -12 -19 -2
-22 6 -3 12 -17 11 -31 l-1 -27 -10 28 c-6 16 -17 27 -29 27 -16 0 -19 -7 -19
-44 0 -25 -5 -48 -11 -52 -6 -3 -9 -24 -7 -45 2 -22 -1 -40 -7 -40 -5 -1 -20
-3 -33 -4 -31 -3 -32 -5 -17 -47 8 -25 9 -38 2 -41 -7 -2 -7 -9 0 -21 12 -22
26 -8 32 33 0 5 10 7 21 4 17 -4 19 -2 13 13 -6 17 -5 17 10 5 11 -9 14 -18 8
-30 -11 -21 -3 -41 15 -41 8 0 14 -5 14 -11 0 -5 -5 -7 -12 -3 -7 5 -9 2 -5
-9 3 -9 0 -18 -8 -21 -12 -4 -11 -13 6 -53 11 -26 21 -56 22 -65 1 -10 5 -18
9 -18 4 0 8 -6 8 -14 0 -15 -53 -29 -58 -15 -2 5 -8 9 -14 9 -10 0 -22 11 -47
43 -9 11 -10 21 -4 30 23 29 22 45 -2 43 -19 -1 -21 -4 -13 -20 7 -13 7 -16
-1 -12 -51 32 61 -152 149 -244 39 -41 63 -63 54 -47 -11 18 -12 27 -5 27 7 0
9 5 6 10 -3 6 -2 10 4 10 16 0 22 -18 9 -23 -21 -8 44 -29 72 -23 14 3 19 3
13 0 -15 -6 -18 -44 -4 -44 5 0 12 6 14 13 3 7 6 5 6 -5 1 -10 5 -18 10 -18 5
0 11 -11 13 -25 6 -27 -8 -24 -30 7 -7 10 -18 16 -23 12 -31 -19 181 -138 306
-172 58 -16 72 -17 83 -6 18 20 15 24 -20 25 -27 1 -29 2 -11 7 39 12 11 34
-47 36 -40 2 -56 8 -69 24 -10 14 -29 22 -53 24 -20 1 -34 6 -31 11 6 11 -26
47 -42 47 -13 0 -36 30 -67 88 -14 24 -15 32 -5 32 8 0 14 11 14 29 0 23 -6
30 -36 41 -20 7 -43 15 -51 18 -12 5 -13 3 -3 -10 11 -12 9 -18 -7 -33 -19
-17 -20 -17 -41 9 -12 15 -30 26 -45 26 -13 0 -24 4 -24 9 0 5 -3 18 -6 28 -4
13 0 11 14 -7 12 -14 24 -22 28 -18 3 4 13 1 20 -7 8 -8 22 -11 30 -8 15 6 15
17 -1 56 -5 12 -2 17 8 17 13 0 13 6 4 35 -6 19 -16 36 -24 36 -7 1 -19 2 -25
3 -7 1 -15 -4 -18 -11 -4 -9 -11 -8 -30 2 -25 14 -25 14 -2 15 21 0 27 14 22
49 -1 13 1 13 15 1 9 -7 14 -19 11 -27 -3 -7 1 -13 10 -13 8 0 12 4 9 10 -3 6
1 7 10 4 11 -5 14 -1 12 12 -1 11 -6 24 -10 30 -8 14 77 24 96 12 7 -5 1 -8
-15 -8 -32 0 -33 -5 -15 -43 9 -20 19 -27 41 -27 28 0 28 1 23 40 l-5 39 52 3
c57 3 54 -4 43 98 -3 25 -6 53 -6 63 -1 9 -7 17 -15 17 -14 0 -26 29 -26 68 0
19 -5 22 -35 22 -31 0 -35 -3 -36 -27 0 -27 -1 -27 -9 -5 -6 12 -18 22 -30 22
-11 0 -20 6 -20 14 0 17 -41 29 -54 16 -7 -7 0 -10 17 -10 15 0 27 -4 27 -10
0 -5 -13 -10 -30 -10 -26 0 -30 4 -31 30 -2 44 -2 45 -21 64 -9 9 -15 22 -12
29 2 7 -5 18 -16 25 -18 11 -20 10 -20 -9z m57 -181 c-3 -8 -6 -5 -6 6 -1 11
2 17 5 13 3 -3 4 -12 1 -19z m-113 -87 c-10 -10 -23 -16 -27 -14 -5 3 0 11 10
19 27 20 39 17 17 -5z m156 -41 c0 -5 -5 -10 -11 -10 -5 0 -7 5 -4 10 3 6 8
10 11 10 2 0 4 -4 4 -10z m-35 -400 c3 -6 -1 -7 -9 -4 -18 7 -21 14 -7 14 6 0
13 -4 16 -10z"/>
<path d="M1031 1254 c0 -11 3 -14 6 -6 3 7 2 16 -1 19 -3 4 -6 -2 -5 -13z"/>
<path d="M1110 1260 c0 -5 5 -10 10 -10 6 0 10 5 10 10 0 6 -4 10 -10 10 -5 0
-10 -4 -10 -10z"/>
<path d="M1155 1260 c3 -5 8 -10 11 -10 2 0 4 5 4 10 0 6 -5 10 -11 10 -5 0
-7 -4 -4 -10z"/>
<path d="M1090 1210 c0 -5 5 -10 11 -10 5 0 7 5 4 10 -3 6 -8 10 -11 10 -2 0
-4 -4 -4 -10z"/>
<path d="M1180 1211 c0 -6 5 -13 10 -16 6 -3 10 1 10 9 0 9 -4 16 -10 16 -5 0
-10 -4 -10 -9z"/>
<path d="M1030 1175 c0 -8 2 -15 4 -15 2 0 6 7 10 15 3 8 1 15 -4 15 -6 0 -10
-7 -10 -15z"/>
<path d="M1060 1170 c0 -11 4 -20 9 -20 5 0 7 9 4 20 -3 11 -7 20 -9 20 -2 0
-4 -9 -4 -20z"/>
<path d="M1090 1170 c0 -11 5 -20 10 -20 6 0 10 9 10 20 0 11 -4 20 -10 20 -5
0 -10 -9 -10 -20z"/>
<path d="M1070 1011 c0 -16 12 -41 20 -41 4 0 5 11 2 25 -4 23 -22 36 -22 16z"/>
<path d="M1071 930 c0 -8 4 -22 9 -30 12 -18 12 -2 0 25 -6 13 -9 15 -9 5z"/>
<path d="M1376 845 c4 -8 8 -15 10 -15 2 0 4 7 4 15 0 8 -4 15 -10 15 -5 0 -7
-7 -4 -15z"/>
<path d="M1768 823 c12 -2 32 -2 45 0 12 2 2 4 -23 4 -25 0 -35 -2 -22 -4z"/>
<path d="M1160 790 c0 -5 5 -10 10 -10 6 0 10 5 10 10 0 6 -4 10 -10 10 -5 0
-10 -4 -10 -10z"/>
<path d="M2850 744 c-12 -19 -20 -38 -17 -41 6 -5 47 55 47 70 0 14 -9 6 -30
-29z"/>
<path d="M1420 705 c0 -4 7 -19 15 -35 12 -23 22 -30 46 -30 26 0 30 3 24 18
-4 9 -10 25 -12 35 -4 12 -16 17 -39 17 -19 0 -34 -2 -34 -5z"/>
<path d="M2366 564 c-11 -28 -6 -44 12 -44 24 0 62 28 62 46 0 20 -66 19 -74
-2z"/>
<path d="M2098 563 c-11 -3 -18 -14 -18 -29 0 -21 4 -24 38 -24 21 0 43 5 50
12 9 9 12 9 12 0 0 -7 15 -12 39 -12 31 0 41 4 46 20 3 11 4 24 0 30 -6 9
-132 11 -167 3z"/>
<path d="M2310 500 c0 -5 4 -10 9 -10 6 0 13 5 16 10 3 6 -1 10 -9 10 -9 0
-16 -4 -16 -10z"/>
<path d="M1921 484 c0 -11 3 -14 6 -6 3 7 2 16 -1 19 -3 4 -6 -2 -5 -13z"/>
<path d="M2120 476 c0 -30 22 -34 77 -14 47 17 36 32 -25 36 -50 3 -52 2 -52
-22z"/>
<path d="M1386 474 c-8 -21 -8 -24 5 -24 5 0 7 5 4 10 -3 6 -1 10 4 10 6 0 11
5 11 10 0 16 -17 12 -24 -6z"/>
<path d="M2378 453 c6 -2 18 -2 25 0 6 3 1 5 -13 5 -14 0 -19 -2 -12 -5z"/>
<path d="M2153 443 c-55 -3 -63 -7 -63 -23 0 -17 7 -20 40 -20 25 0 40 5 40
13 0 9 2 9 8 -1 8 -12 66 -12 78 1 3 3 12 3 20 0 9 -3 14 2 14 16 0 23 9 22
-137 14z"/>
<path d="M1891 424 c0 -11 3 -14 6 -6 3 7 2 16 -1 19 -3 4 -6 -2 -5 -13z"/>
<path d="M1810 381 c0 -5 5 -13 10 -16 6 -3 10 -2 10 4 0 5 -4 13 -10 16 -5 3
-10 2 -10 -4z"/>
<path d="M1891 314 c13 -14 25 -20 27 -15 2 6 17 11 33 11 19 0 29 5 29 15 0
12 -13 15 -57 15 l-56 0 24 -26z"/>
<path d="M1995 300 c4 -6 11 -8 16 -5 14 9 11 15 -7 15 -8 0 -12 -5 -9 -10z"/>
<path d="M1825 271 c-6 -11 33 -26 43 -16 4 3 0 10 -8 15 -19 12 -27 12 -35 1z"/>
<path d="M1950 263 c0 -6 -10 -14 -22 -16 -13 -2 9 -5 47 -6 60 -1 72 2 83 19
12 19 10 20 -48 18 -38 -2 -60 -7 -60 -15z m90 -9 c0 -2 -7 -4 -15 -4 -8 0
-15 4 -15 10 0 5 7 7 15 4 8 -4 15 -8 15 -10z"/>
<path d="M2068 243 c6 -2 18 -2 25 0 6 3 1 5 -13 5 -14 0 -19 -2 -12 -5z"/>
</g>
</svg>
